<mxfile host="app.diagrams.net" modified="2024-04-30T09:56:11.807Z" agent="Mozilla/5.0 (Windows NT 10.0; Win64; x64) AppleWebKit/537.36 (KHTML, like Gecko) Chrome/124.0.0.0 Safari/537.36" etag="PVErioN3rAlyr9CBMqcN" version="24.2.5" type="github">
  <diagram name="Page-1" id="2c0d36ab-eaac-3732-788b-9136903baeff">
    <mxGraphModel dx="1647" dy="882" grid="1" gridSize="10" guides="1" tooltips="1" connect="1" arrows="1" fold="1" page="1" pageScale="1.5" pageWidth="1169" pageHeight="827" background="none" math="0" shadow="0">
      <root>
        <mxCell id="0" />
        <mxCell id="1" parent="0" />
        <mxCell id="123" value="" style="fillColor=#AE4132;strokeColor=none;opacity=30;" parent="1" vertex="1">
          <mxGeometry x="747" y="175.50000000000003" width="210" height="99.99999999999994" as="geometry" />
        </mxCell>
        <mxCell id="122" value="" style="fillColor=#10739E;strokeColor=none;opacity=30;" parent="1" vertex="1">
          <mxGeometry x="97" y="325.5" width="1470" height="99.99999999999994" as="geometry" />
        </mxCell>
        <mxCell id="120" value="" style="fillColor=#F2931E;strokeColor=none;opacity=30;" parent="1" vertex="1">
          <mxGeometry x="1510" y="438" width="150" height="274.5" as="geometry" />
        </mxCell>
        <mxCell id="118" value="" style="fillColor=#F2931E;strokeColor=none;opacity=30;" parent="1" vertex="1">
          <mxGeometry x="1060" y="448" width="150" height="364.5" as="geometry" />
        </mxCell>
        <mxCell id="2" value="Main Branch" style="rounded=1;fillColor=#23445D;gradientColor=none;strokeColor=none;fontColor=#FFFFFF;fontStyle=1;fontFamily=Tahoma;fontSize=14" parent="1" vertex="1">
          <mxGeometry x="757" y="185.5" width="190" height="80" as="geometry" />
        </mxCell>
        <mxCell id="4" value="orga/shared" style="rounded=1;fillColor=#23445D;gradientColor=none;strokeColor=none;fontColor=#FFFFFF;fontStyle=1;fontFamily=Tahoma;fontSize=14" parent="1" vertex="1">
          <mxGeometry x="1361.9999999999998" y="335.5" width="190" height="80" as="geometry" />
        </mxCell>
        <mxCell id="9" value="" style="edgeStyle=elbowEdgeStyle;elbow=vertical;strokeWidth=2;rounded=0" parent="1" source="2" target="4" edge="1">
          <mxGeometry x="337" y="215.5" width="100" height="100" as="geometry">
            <mxPoint x="337" y="315.5" as="sourcePoint" />
            <mxPoint x="437" y="215.5" as="targetPoint" />
          </mxGeometry>
        </mxCell>
        <mxCell id="10" value="modules" style="rounded=1;fillColor=#23445D;gradientColor=none;strokeColor=none;fontColor=#FFFFFF;fontStyle=1;fontFamily=Tahoma;fontSize=14" parent="1" vertex="1">
          <mxGeometry x="920" y="335.5" width="190" height="80" as="geometry" />
        </mxCell>
        <mxCell id="12" value="prod" style="rounded=1;fillColor=#23445D;gradientColor=none;strokeColor=none;fontColor=#FFFFFF;fontStyle=1;fontFamily=Tahoma;fontSize=14" parent="1" vertex="1">
          <mxGeometry x="561.9999999999999" y="335.5" width="190" height="80" as="geometry" />
        </mxCell>
        <mxCell id="13" value="non-prod" style="rounded=1;fillColor=#23445D;gradientColor=none;strokeColor=none;fontColor=#FFFFFF;fontStyle=1;fontFamily=Tahoma;fontSize=14" parent="1" vertex="1">
          <mxGeometry x="107" y="335.5" width="190" height="80" as="geometry" />
        </mxCell>
        <mxCell id="16" value="infrastructure" style="rounded=1;fillColor=#23445D;gradientColor=none;strokeColor=none;fontColor=#FFFFFF;fontStyle=1;fontFamily=Tahoma;fontSize=14" parent="1" vertex="1">
          <mxGeometry x="1070" y="465.5" width="130" height="60" as="geometry" />
        </mxCell>
        <mxCell id="17" value="rancher" style="rounded=1;fillColor=#23445D;gradientColor=none;strokeColor=none;fontColor=#FFFFFF;fontStyle=1;fontFamily=Tahoma;fontSize=14" parent="1" vertex="1">
          <mxGeometry x="1070" y="555.5" width="130" height="60" as="geometry" />
        </mxCell>
        <mxCell id="18" value="downstream" style="rounded=1;fillColor=#23445D;gradientColor=none;strokeColor=none;fontColor=#FFFFFF;fontStyle=1;fontFamily=Tahoma;fontSize=14" parent="1" vertex="1">
          <mxGeometry x="1070" y="645.5" width="130" height="60" as="geometry" />
        </mxCell>
        <mxCell id="19" value="fleet" style="rounded=1;fillColor=#23445D;gradientColor=none;strokeColor=none;fontColor=#FFFFFF;fontStyle=1;fontFamily=Tahoma;fontSize=14" parent="1" vertex="1">
          <mxGeometry x="1070" y="735.5" width="130" height="60" as="geometry" />
        </mxCell>
        <mxCell id="41" value="build" style="rounded=1;fillColor=#23445D;gradientColor=none;strokeColor=none;fontColor=#FFFFFF;fontStyle=1;fontFamily=Tahoma;fontSize=14" parent="1" vertex="1">
          <mxGeometry x="1520" y="448" width="130" height="60" as="geometry" />
        </mxCell>
        <mxCell id="42" value="projects" style="rounded=1;fillColor=#23445D;gradientColor=none;strokeColor=none;fontColor=#FFFFFF;fontStyle=1;fontFamily=Tahoma;fontSize=14" parent="1" vertex="1">
          <mxGeometry x="1520" y="538" width="130" height="60" as="geometry" />
        </mxCell>
        <mxCell id="43" value="..." style="rounded=1;fillColor=#23445D;gradientColor=none;strokeColor=none;fontColor=#FFFFFF;fontStyle=1;fontFamily=Tahoma;fontSize=14" parent="1" vertex="1">
          <mxGeometry x="1520" y="628" width="130" height="60" as="geometry" />
        </mxCell>
        <mxCell id="59" value="" style="edgeStyle=elbowEdgeStyle;elbow=vertical;strokeWidth=2;rounded=0" parent="1" source="2" target="12" edge="1">
          <mxGeometry x="347" y="225.5" width="100" height="100" as="geometry">
            <mxPoint x="861.9999999999999" y="275.5" as="sourcePoint" />
            <mxPoint x="1466.9999999999998" y="345.5" as="targetPoint" />
          </mxGeometry>
        </mxCell>
        <mxCell id="61" value="" style="edgeStyle=elbowEdgeStyle;elbow=vertical;strokeWidth=2;rounded=0" parent="1" source="2" target="13" edge="1">
          <mxGeometry x="-23" y="135.5" width="100" height="100" as="geometry">
            <mxPoint x="-23" y="235.5" as="sourcePoint" />
            <mxPoint x="77" y="135.5" as="targetPoint" />
          </mxGeometry>
        </mxCell>
        <mxCell id="67" value="" style="edgeStyle=elbowEdgeStyle;elbow=horizontal;strokeWidth=2;rounded=0;entryX=0;entryY=0.5;entryDx=0;entryDy=0;" parent="1" source="13" target="Fah7WltUJ408GvqtGRhu-148" edge="1">
          <mxGeometry x="-23" y="135.5" width="100" height="100" as="geometry">
            <mxPoint x="-23" y="235.5" as="sourcePoint" />
            <mxPoint x="250" y="780" as="targetPoint" />
            <Array as="points">
              <mxPoint x="202" y="575.5" />
            </Array>
          </mxGeometry>
        </mxCell>
        <mxCell id="70" value="" style="edgeStyle=elbowEdgeStyle;elbow=horizontal;strokeWidth=2;rounded=0" parent="1" target="26" edge="1">
          <mxGeometry x="-23" y="135.5" width="100" height="100" as="geometry">
            <mxPoint x="417" y="485.5" as="sourcePoint" />
            <mxPoint x="77" y="135.5" as="targetPoint" />
            <Array as="points">
              <mxPoint x="397" y="535.5" />
            </Array>
          </mxGeometry>
        </mxCell>
        <mxCell id="71" value="" style="edgeStyle=elbowEdgeStyle;elbow=horizontal;strokeWidth=2;rounded=0" parent="1" target="27" edge="1">
          <mxGeometry x="-23" y="135.5" width="100" height="100" as="geometry">
            <mxPoint x="417" y="485.5" as="sourcePoint" />
            <mxPoint x="77" y="135.5" as="targetPoint" />
            <Array as="points">
              <mxPoint x="397" y="575.5" />
            </Array>
          </mxGeometry>
        </mxCell>
        <mxCell id="72" value="" style="edgeStyle=elbowEdgeStyle;elbow=horizontal;strokeWidth=2;rounded=0" parent="1" source="25" edge="1">
          <mxGeometry x="-23" y="135.5" width="100" height="100" as="geometry">
            <mxPoint x="-23" y="235.5" as="sourcePoint" />
            <mxPoint x="417" y="755.5" as="targetPoint" />
            <Array as="points">
              <mxPoint x="397" y="615.5" />
            </Array>
          </mxGeometry>
        </mxCell>
        <mxCell id="73" value="" style="edgeStyle=elbowEdgeStyle;elbow=horizontal;strokeWidth=2;rounded=0" parent="1" source="29" edge="1">
          <mxGeometry x="-23" y="135.5" width="100" height="100" as="geometry">
            <mxPoint x="-23" y="235.5" as="sourcePoint" />
            <mxPoint x="592" y="575.5" as="targetPoint" />
            <Array as="points">
              <mxPoint x="567" y="535.5" />
            </Array>
          </mxGeometry>
        </mxCell>
        <mxCell id="74" value="" style="edgeStyle=elbowEdgeStyle;elbow=horizontal;strokeWidth=2;rounded=0" parent="1" source="29" edge="1">
          <mxGeometry x="-23" y="135.5" width="100" height="100" as="geometry">
            <mxPoint x="-23" y="235.5" as="sourcePoint" />
            <mxPoint x="592" y="665.5" as="targetPoint" />
            <Array as="points">
              <mxPoint x="567" y="575.5" />
            </Array>
          </mxGeometry>
        </mxCell>
        <mxCell id="75" value="" style="edgeStyle=elbowEdgeStyle;elbow=horizontal;strokeWidth=2;rounded=0" parent="1" source="29" edge="1">
          <mxGeometry x="-23" y="135.5" width="100" height="100" as="geometry">
            <mxPoint x="-23" y="235.5" as="sourcePoint" />
            <mxPoint x="592" y="755.5" as="targetPoint" />
            <Array as="points">
              <mxPoint x="567" y="615.5" />
            </Array>
          </mxGeometry>
        </mxCell>
        <mxCell id="Fah7WltUJ408GvqtGRhu-134" value="" style="edgeStyle=elbowEdgeStyle;elbow=horizontal;strokeWidth=2;rounded=0" edge="1" parent="1">
          <mxGeometry x="-23" y="135.5" width="100" height="100" as="geometry">
            <mxPoint x="1460" y="415.5" as="sourcePoint" />
            <mxPoint x="1520" y="475" as="targetPoint" />
            <Array as="points">
              <mxPoint x="1460" y="435" />
            </Array>
          </mxGeometry>
        </mxCell>
        <mxCell id="Fah7WltUJ408GvqtGRhu-135" value="" style="edgeStyle=elbowEdgeStyle;elbow=horizontal;strokeWidth=2;rounded=0" edge="1" parent="1">
          <mxGeometry x="-23" y="135.5" width="100" height="100" as="geometry">
            <mxPoint x="1460" y="415.5" as="sourcePoint" />
            <mxPoint x="1520" y="565" as="targetPoint" />
            <Array as="points">
              <mxPoint x="1460" y="475" />
            </Array>
          </mxGeometry>
        </mxCell>
        <mxCell id="Fah7WltUJ408GvqtGRhu-136" value="" style="edgeStyle=elbowEdgeStyle;elbow=horizontal;strokeWidth=2;rounded=0" edge="1" parent="1">
          <mxGeometry x="-23" y="135.5" width="100" height="100" as="geometry">
            <mxPoint x="1460" y="415.5" as="sourcePoint" />
            <mxPoint x="1520" y="655" as="targetPoint" />
            <Array as="points">
              <mxPoint x="1460" y="525" />
            </Array>
          </mxGeometry>
        </mxCell>
        <mxCell id="Fah7WltUJ408GvqtGRhu-137" value="main.tf" style="rounded=1;fillColor=#d5e8d4;strokeColor=#82b366;fontStyle=1;fontFamily=Tahoma;fontSize=14" vertex="1" parent="1">
          <mxGeometry x="250" y="600.25" width="130" height="60" as="geometry" />
        </mxCell>
        <mxCell id="Fah7WltUJ408GvqtGRhu-139" value="" style="edgeStyle=elbowEdgeStyle;elbow=horizontal;strokeWidth=2;rounded=0;entryX=0;entryY=0.5;entryDx=0;entryDy=0;exitX=0.5;exitY=1;exitDx=0;exitDy=0;" edge="1" parent="1" source="10">
          <mxGeometry x="-23" y="135.5" width="100" height="100" as="geometry">
            <mxPoint x="992" y="412.5" as="sourcePoint" />
            <mxPoint x="1070" y="493.5" as="targetPoint" />
            <Array as="points">
              <mxPoint x="1020" y="460" />
            </Array>
          </mxGeometry>
        </mxCell>
        <mxCell id="Fah7WltUJ408GvqtGRhu-140" value="" style="edgeStyle=elbowEdgeStyle;elbow=horizontal;strokeWidth=2;rounded=0;exitX=0.5;exitY=1;exitDx=0;exitDy=0;" edge="1" parent="1" source="10" target="17">
          <mxGeometry x="-23" y="135.5" width="100" height="100" as="geometry">
            <mxPoint x="947" y="493.5" as="sourcePoint" />
            <mxPoint x="1023" y="668.5" as="targetPoint" />
            <Array as="points">
              <mxPoint x="1020" y="500" />
            </Array>
          </mxGeometry>
        </mxCell>
        <mxCell id="Fah7WltUJ408GvqtGRhu-141" value="" style="edgeStyle=elbowEdgeStyle;elbow=horizontal;strokeWidth=2;rounded=0;entryX=0;entryY=0.5;entryDx=0;entryDy=0;exitX=0.5;exitY=1;exitDx=0;exitDy=0;" edge="1" parent="1" source="10" target="18">
          <mxGeometry x="-23" y="135.5" width="100" height="100" as="geometry">
            <mxPoint x="960" y="500" as="sourcePoint" />
            <mxPoint x="1036" y="680.5" as="targetPoint" />
            <Array as="points">
              <mxPoint x="1020" y="680" />
            </Array>
          </mxGeometry>
        </mxCell>
        <mxCell id="Fah7WltUJ408GvqtGRhu-142" value="" style="edgeStyle=elbowEdgeStyle;elbow=vertical;strokeWidth=2;rounded=0;entryX=0;entryY=0.5;entryDx=0;entryDy=0;" edge="1" parent="1" target="19">
          <mxGeometry x="-23" y="135.5" width="100" height="100" as="geometry">
            <mxPoint x="1020" y="415.5" as="sourcePoint" />
            <mxPoint x="1020" y="820" as="targetPoint" />
            <Array as="points">
              <mxPoint x="1040" y="766" />
            </Array>
          </mxGeometry>
        </mxCell>
        <mxCell id="Fah7WltUJ408GvqtGRhu-148" value="terraform.tfvars" style="rounded=1;fillColor=#d5e8d4;strokeColor=#82b366;fontStyle=1;fontFamily=Tahoma;fontSize=14" vertex="1" parent="1">
          <mxGeometry x="250" y="705.5" width="130" height="60" as="geometry" />
        </mxCell>
        <mxCell id="Fah7WltUJ408GvqtGRhu-149" value="" style="edgeStyle=elbowEdgeStyle;elbow=horizontal;strokeWidth=2;rounded=0;entryX=0;entryY=0.5;entryDx=0;entryDy=0;exitX=0.5;exitY=1;exitDx=0;exitDy=0;" edge="1" parent="1" source="12" target="Fah7WltUJ408GvqtGRhu-152">
          <mxGeometry x="-23" y="135.5" width="100" height="100" as="geometry">
            <mxPoint x="640" y="425.5" as="sourcePoint" />
            <mxPoint x="693" y="745.5" as="targetPoint" />
            <Array as="points">
              <mxPoint x="657" y="590" />
            </Array>
          </mxGeometry>
        </mxCell>
        <mxCell id="Fah7WltUJ408GvqtGRhu-150" value="" style="edgeStyle=elbowEdgeStyle;elbow=vertical;strokeWidth=2;rounded=0;entryX=0;entryY=0.5;entryDx=0;entryDy=0;exitX=0.5;exitY=1;exitDx=0;exitDy=0;" edge="1" target="Fah7WltUJ408GvqtGRhu-151" parent="1" source="12">
          <mxGeometry x="-23" y="135.5" width="100" height="100" as="geometry">
            <mxPoint x="660" y="570" as="sourcePoint" />
            <mxPoint x="530" y="617.5" as="targetPoint" />
            <Array as="points">
              <mxPoint x="680" y="635" />
              <mxPoint x="690" y="635.5" />
            </Array>
          </mxGeometry>
        </mxCell>
        <mxCell id="Fah7WltUJ408GvqtGRhu-151" value="main.tf" style="rounded=1;fillColor=#d5e8d4;strokeColor=#82b366;fontStyle=1;fontFamily=Tahoma;fontSize=14" vertex="1" parent="1">
          <mxGeometry x="710" y="605" width="130" height="60" as="geometry" />
        </mxCell>
        <mxCell id="Fah7WltUJ408GvqtGRhu-152" value="terraform.tfvars" style="rounded=1;fillColor=#d5e8d4;strokeColor=#82b366;fontStyle=1;fontFamily=Tahoma;fontSize=14" vertex="1" parent="1">
          <mxGeometry x="710" y="705.5" width="130" height="60" as="geometry" />
        </mxCell>
        <mxCell id="Fah7WltUJ408GvqtGRhu-153" value="backend.tf" style="rounded=1;fillColor=#d5e8d4;strokeColor=#82b366;fontStyle=1;fontFamily=Tahoma;fontSize=14" vertex="1" parent="1">
          <mxGeometry x="250" y="495.5" width="130" height="60" as="geometry" />
        </mxCell>
        <mxCell id="Fah7WltUJ408GvqtGRhu-154" value="" style="edgeStyle=elbowEdgeStyle;elbow=horizontal;strokeWidth=2;rounded=0;entryX=0;entryY=0.5;entryDx=0;entryDy=0;" edge="1" target="Fah7WltUJ408GvqtGRhu-153" parent="1">
          <mxGeometry x="-23" y="135.5" width="100" height="100" as="geometry">
            <mxPoint x="202" y="420" as="sourcePoint" />
            <mxPoint x="250" y="524" as="targetPoint" />
            <Array as="points">
              <mxPoint x="202" y="319.5" />
            </Array>
          </mxGeometry>
        </mxCell>
        <mxCell id="Fah7WltUJ408GvqtGRhu-155" value="backend.tf" style="rounded=1;fillColor=#d5e8d4;strokeColor=#82b366;fontStyle=1;fontFamily=Tahoma;fontSize=14" vertex="1" parent="1">
          <mxGeometry x="710" y="493.5" width="130" height="60" as="geometry" />
        </mxCell>
        <mxCell id="Fah7WltUJ408GvqtGRhu-156" value="" style="edgeStyle=elbowEdgeStyle;elbow=horizontal;strokeWidth=2;rounded=0;entryX=0;entryY=0.5;entryDx=0;entryDy=0;exitX=0.5;exitY=1;exitDx=0;exitDy=0;" edge="1" target="Fah7WltUJ408GvqtGRhu-155" parent="1" source="12">
          <mxGeometry x="-23" y="135.5" width="100" height="100" as="geometry">
            <mxPoint x="670" y="460" as="sourcePoint" />
            <mxPoint x="710" y="524" as="targetPoint" />
            <Array as="points">
              <mxPoint x="657" y="470" />
            </Array>
          </mxGeometry>
        </mxCell>
        <mxCell id="Fah7WltUJ408GvqtGRhu-157" value="" style="fillColor=#AE4132;strokeColor=none;opacity=30;" vertex="1" parent="1">
          <mxGeometry x="477" y="890" width="210" height="99.99999999999994" as="geometry" />
        </mxCell>
        <mxCell id="Fah7WltUJ408GvqtGRhu-158" value="" style="fillColor=#10739E;strokeColor=none;opacity=30;" vertex="1" parent="1">
          <mxGeometry x="160" y="1040" width="1137" height="100" as="geometry" />
        </mxCell>
        <mxCell id="Fah7WltUJ408GvqtGRhu-159" value="" style="fillColor=#F2931E;strokeColor=none;opacity=30;" vertex="1" parent="1">
          <mxGeometry x="1240" y="1152.5" width="150" height="274.5" as="geometry" />
        </mxCell>
        <mxCell id="Fah7WltUJ408GvqtGRhu-160" value="" style="fillColor=#F2931E;strokeColor=none;opacity=30;" vertex="1" parent="1">
          <mxGeometry x="790" y="1162.5" width="150" height="364.5" as="geometry" />
        </mxCell>
        <mxCell id="Fah7WltUJ408GvqtGRhu-161" value="Test Branch" style="rounded=1;fillColor=#23445D;gradientColor=none;strokeColor=none;fontColor=#FFFFFF;fontStyle=1;fontFamily=Tahoma;fontSize=14" vertex="1" parent="1">
          <mxGeometry x="487" y="900" width="190" height="80" as="geometry" />
        </mxCell>
        <mxCell id="Fah7WltUJ408GvqtGRhu-162" value="orga/shared" style="rounded=1;fillColor=#23445D;gradientColor=none;strokeColor=none;fontColor=#FFFFFF;fontStyle=1;fontFamily=Tahoma;fontSize=14" vertex="1" parent="1">
          <mxGeometry x="1091.9999999999998" y="1050" width="190" height="80" as="geometry" />
        </mxCell>
        <mxCell id="Fah7WltUJ408GvqtGRhu-163" value="" style="edgeStyle=elbowEdgeStyle;elbow=vertical;strokeWidth=2;rounded=0" edge="1" source="Fah7WltUJ408GvqtGRhu-161" target="Fah7WltUJ408GvqtGRhu-162" parent="1">
          <mxGeometry x="337" y="215.5" width="100" height="100" as="geometry">
            <mxPoint x="67" y="1030" as="sourcePoint" />
            <mxPoint x="167" y="930" as="targetPoint" />
          </mxGeometry>
        </mxCell>
        <mxCell id="Fah7WltUJ408GvqtGRhu-164" value="modules" style="rounded=1;fillColor=#23445D;gradientColor=none;strokeColor=none;fontColor=#FFFFFF;fontStyle=1;fontFamily=Tahoma;fontSize=14" vertex="1" parent="1">
          <mxGeometry x="677" y="1050" width="190" height="80" as="geometry" />
        </mxCell>
        <mxCell id="Fah7WltUJ408GvqtGRhu-166" value="test" style="rounded=1;fillColor=#23445D;gradientColor=none;strokeColor=none;fontColor=#FFFFFF;fontStyle=1;fontFamily=Tahoma;fontSize=14" vertex="1" parent="1">
          <mxGeometry x="210" y="1050" width="190" height="80" as="geometry" />
        </mxCell>
        <mxCell id="Fah7WltUJ408GvqtGRhu-167" value="infrastructure" style="rounded=1;fillColor=#23445D;gradientColor=none;strokeColor=none;fontColor=#FFFFFF;fontStyle=1;fontFamily=Tahoma;fontSize=14" vertex="1" parent="1">
          <mxGeometry x="800" y="1180" width="130" height="60" as="geometry" />
        </mxCell>
        <mxCell id="Fah7WltUJ408GvqtGRhu-168" value="rancher" style="rounded=1;fillColor=#23445D;gradientColor=none;strokeColor=none;fontColor=#FFFFFF;fontStyle=1;fontFamily=Tahoma;fontSize=14" vertex="1" parent="1">
          <mxGeometry x="800" y="1270" width="130" height="60" as="geometry" />
        </mxCell>
        <mxCell id="Fah7WltUJ408GvqtGRhu-169" value="downstream" style="rounded=1;fillColor=#23445D;gradientColor=none;strokeColor=none;fontColor=#FFFFFF;fontStyle=1;fontFamily=Tahoma;fontSize=14" vertex="1" parent="1">
          <mxGeometry x="800" y="1360" width="130" height="60" as="geometry" />
        </mxCell>
        <mxCell id="Fah7WltUJ408GvqtGRhu-170" value="fleet" style="rounded=1;fillColor=#23445D;gradientColor=none;strokeColor=none;fontColor=#FFFFFF;fontStyle=1;fontFamily=Tahoma;fontSize=14" vertex="1" parent="1">
          <mxGeometry x="800" y="1450" width="130" height="60" as="geometry" />
        </mxCell>
        <mxCell id="Fah7WltUJ408GvqtGRhu-171" value="build" style="rounded=1;fillColor=#23445D;gradientColor=none;strokeColor=none;fontColor=#FFFFFF;fontStyle=1;fontFamily=Tahoma;fontSize=14" vertex="1" parent="1">
          <mxGeometry x="1250" y="1162.5" width="130" height="60" as="geometry" />
        </mxCell>
        <mxCell id="Fah7WltUJ408GvqtGRhu-172" value="projects" style="rounded=1;fillColor=#23445D;gradientColor=none;strokeColor=none;fontColor=#FFFFFF;fontStyle=1;fontFamily=Tahoma;fontSize=14" vertex="1" parent="1">
          <mxGeometry x="1250" y="1252.5" width="130" height="60" as="geometry" />
        </mxCell>
        <mxCell id="Fah7WltUJ408GvqtGRhu-173" value="..." style="rounded=1;fillColor=#23445D;gradientColor=none;strokeColor=none;fontColor=#FFFFFF;fontStyle=1;fontFamily=Tahoma;fontSize=14" vertex="1" parent="1">
          <mxGeometry x="1250" y="1342.5" width="130" height="60" as="geometry" />
        </mxCell>
        <mxCell id="Fah7WltUJ408GvqtGRhu-175" value="" style="edgeStyle=elbowEdgeStyle;elbow=vertical;strokeWidth=2;rounded=0" edge="1" source="Fah7WltUJ408GvqtGRhu-161" target="Fah7WltUJ408GvqtGRhu-166" parent="1">
          <mxGeometry x="-23" y="135.5" width="100" height="100" as="geometry">
            <mxPoint x="-293" y="950" as="sourcePoint" />
            <mxPoint x="-193" y="850" as="targetPoint" />
          </mxGeometry>
        </mxCell>
        <mxCell id="Fah7WltUJ408GvqtGRhu-176" value="" style="edgeStyle=elbowEdgeStyle;elbow=horizontal;strokeWidth=2;rounded=0;entryX=0;entryY=0.5;entryDx=0;entryDy=0;exitX=0.5;exitY=1;exitDx=0;exitDy=0;" edge="1" source="Fah7WltUJ408GvqtGRhu-166" target="Fah7WltUJ408GvqtGRhu-186" parent="1">
          <mxGeometry x="-23" y="135.5" width="100" height="100" as="geometry">
            <mxPoint x="-120" y="1180" as="sourcePoint" />
            <mxPoint x="-20" y="1494.5" as="targetPoint" />
            <Array as="points">
              <mxPoint x="300" y="1330" />
            </Array>
          </mxGeometry>
        </mxCell>
        <mxCell id="Fah7WltUJ408GvqtGRhu-177" value="" style="edgeStyle=elbowEdgeStyle;elbow=horizontal;strokeWidth=2;rounded=0" edge="1" parent="1">
          <mxGeometry x="-23" y="135.5" width="100" height="100" as="geometry">
            <mxPoint x="1190" y="1130" as="sourcePoint" />
            <mxPoint x="1250" y="1189.5" as="targetPoint" />
            <Array as="points">
              <mxPoint x="1190" y="1149.5" />
            </Array>
          </mxGeometry>
        </mxCell>
        <mxCell id="Fah7WltUJ408GvqtGRhu-178" value="" style="edgeStyle=elbowEdgeStyle;elbow=horizontal;strokeWidth=2;rounded=0" edge="1" parent="1">
          <mxGeometry x="-23" y="135.5" width="100" height="100" as="geometry">
            <mxPoint x="1190" y="1130" as="sourcePoint" />
            <mxPoint x="1250" y="1279.5" as="targetPoint" />
            <Array as="points">
              <mxPoint x="1190" y="1189.5" />
            </Array>
          </mxGeometry>
        </mxCell>
        <mxCell id="Fah7WltUJ408GvqtGRhu-179" value="" style="edgeStyle=elbowEdgeStyle;elbow=horizontal;strokeWidth=2;rounded=0" edge="1" parent="1">
          <mxGeometry x="-23" y="135.5" width="100" height="100" as="geometry">
            <mxPoint x="1190" y="1130" as="sourcePoint" />
            <mxPoint x="1250" y="1369.5" as="targetPoint" />
            <Array as="points">
              <mxPoint x="1190" y="1239.5" />
            </Array>
          </mxGeometry>
        </mxCell>
        <mxCell id="Fah7WltUJ408GvqtGRhu-180" value="main.tf" style="rounded=1;fillColor=#d5e8d4;strokeColor=#82b366;fontStyle=1;fontFamily=Tahoma;fontSize=14" vertex="1" parent="1">
          <mxGeometry x="370" y="1312.5" width="130" height="60" as="geometry" />
        </mxCell>
        <mxCell id="Fah7WltUJ408GvqtGRhu-182" value="" style="edgeStyle=elbowEdgeStyle;elbow=horizontal;strokeWidth=2;rounded=0;entryX=0;entryY=0.5;entryDx=0;entryDy=0;" edge="1" parent="1">
          <mxGeometry x="-23" y="135.5" width="100" height="100" as="geometry">
            <mxPoint x="722" y="1127" as="sourcePoint" />
            <mxPoint x="800" y="1208" as="targetPoint" />
            <Array as="points">
              <mxPoint x="722" y="1142.5" />
            </Array>
          </mxGeometry>
        </mxCell>
        <mxCell id="Fah7WltUJ408GvqtGRhu-183" value="" style="edgeStyle=elbowEdgeStyle;elbow=horizontal;strokeWidth=2;rounded=0;entryX=0;entryY=0.5;entryDx=0;entryDy=0;" edge="1" target="Fah7WltUJ408GvqtGRhu-168" parent="1">
          <mxGeometry x="-23" y="135.5" width="100" height="100" as="geometry">
            <mxPoint x="724" y="1125" as="sourcePoint" />
            <mxPoint x="770" y="1304.5" as="targetPoint" />
            <Array as="points">
              <mxPoint x="724" y="1184.5" />
            </Array>
          </mxGeometry>
        </mxCell>
        <mxCell id="Fah7WltUJ408GvqtGRhu-184" value="" style="edgeStyle=elbowEdgeStyle;elbow=horizontal;strokeWidth=2;rounded=0;entryX=0;entryY=0.5;entryDx=0;entryDy=0;" edge="1" target="Fah7WltUJ408GvqtGRhu-169" parent="1">
          <mxGeometry x="-23" y="135.5" width="100" height="100" as="geometry">
            <mxPoint x="724" y="1125" as="sourcePoint" />
            <mxPoint x="772" y="1389" as="targetPoint" />
            <Array as="points">
              <mxPoint x="724" y="1234.5" />
            </Array>
          </mxGeometry>
        </mxCell>
        <mxCell id="Fah7WltUJ408GvqtGRhu-185" value="" style="edgeStyle=elbowEdgeStyle;elbow=horizontal;strokeWidth=2;rounded=0;entryX=0.016;entryY=0.633;entryDx=0;entryDy=0;entryPerimeter=0;" edge="1" target="Fah7WltUJ408GvqtGRhu-170" parent="1">
          <mxGeometry x="-23" y="135.5" width="100" height="100" as="geometry">
            <mxPoint x="724" y="1134.5" as="sourcePoint" />
            <mxPoint x="772" y="1489" as="targetPoint" />
            <Array as="points">
              <mxPoint x="724" y="1284.5" />
            </Array>
          </mxGeometry>
        </mxCell>
        <mxCell id="Fah7WltUJ408GvqtGRhu-186" value="terraform.tfvars" style="rounded=1;fillColor=#d5e8d4;strokeColor=#82b366;fontStyle=1;fontFamily=Tahoma;fontSize=14" vertex="1" parent="1">
          <mxGeometry x="370" y="1420" width="130" height="60" as="geometry" />
        </mxCell>
        <mxCell id="Fah7WltUJ408GvqtGRhu-191" value="backend.tf" style="rounded=1;fillColor=#d5e8d4;strokeColor=#82b366;fontStyle=1;fontFamily=Tahoma;fontSize=14" vertex="1" parent="1">
          <mxGeometry x="370" y="1192.5" width="130" height="60" as="geometry" />
        </mxCell>
        <mxCell id="Fah7WltUJ408GvqtGRhu-195" value="&lt;h1 style=&quot;margin-top: 0px;&quot;&gt;&lt;font style=&quot;font-size: 39px;&quot;&gt;cleo-infrastructure&lt;/font&gt;&lt;/h1&gt;" style="text;html=1;whiteSpace=wrap;overflow=hidden;rounded=0;" vertex="1" parent="1">
          <mxGeometry x="240" y="70" width="720" height="50" as="geometry" />
        </mxCell>
        <mxCell id="Fah7WltUJ408GvqtGRhu-197" value="" style="edgeStyle=elbowEdgeStyle;elbow=horizontal;strokeWidth=2;rounded=0;entryX=0;entryY=0.5;entryDx=0;entryDy=0;" edge="1" parent="1" target="Fah7WltUJ408GvqtGRhu-191">
          <mxGeometry x="-23" y="135.5" width="100" height="100" as="geometry">
            <mxPoint x="300" y="1130" as="sourcePoint" />
            <mxPoint x="390" y="1460" as="targetPoint" />
            <Array as="points">
              <mxPoint x="300" y="1180" />
            </Array>
          </mxGeometry>
        </mxCell>
        <mxCell id="Fah7WltUJ408GvqtGRhu-198" value="" style="edgeStyle=elbowEdgeStyle;elbow=horizontal;strokeWidth=2;rounded=0;entryX=0;entryY=0.5;entryDx=0;entryDy=0;" edge="1" parent="1" target="Fah7WltUJ408GvqtGRhu-180">
          <mxGeometry x="-23" y="135.5" width="100" height="100" as="geometry">
            <mxPoint x="298" y="1130" as="sourcePoint" />
            <mxPoint x="476.9999999999999" y="1350.12" as="targetPoint" />
            <Array as="points">
              <mxPoint x="298.16999999999996" y="1303.5" />
            </Array>
          </mxGeometry>
        </mxCell>
        <mxCell id="Fah7WltUJ408GvqtGRhu-199" value="" style="edgeStyle=elbowEdgeStyle;elbow=horizontal;strokeWidth=2;rounded=0;entryX=0;entryY=0.496;entryDx=0;entryDy=0;entryPerimeter=0;exitX=0.5;exitY=1;exitDx=0;exitDy=0;" edge="1" parent="1" source="13" target="Fah7WltUJ408GvqtGRhu-137">
          <mxGeometry x="-23" y="135.5" width="100" height="100" as="geometry">
            <mxPoint x="200" y="430" as="sourcePoint" />
            <mxPoint x="250" y="638" as="targetPoint" />
            <Array as="points">
              <mxPoint x="202" y="477.5" />
            </Array>
          </mxGeometry>
        </mxCell>
        <mxCell id="Fah7WltUJ408GvqtGRhu-201" value="main.tf" style="rounded=1;fillColor=#d5e8d4;strokeColor=#82b366;fontStyle=1;fontFamily=Tahoma;fontSize=14" vertex="1" parent="1">
          <mxGeometry x="1282" y="525.5" width="130" height="60" as="geometry" />
        </mxCell>
        <mxCell id="Fah7WltUJ408GvqtGRhu-202" value="variables.tf" style="rounded=1;fillColor=#d5e8d4;strokeColor=#82b366;fontStyle=1;fontFamily=Tahoma;fontSize=14" vertex="1" parent="1">
          <mxGeometry x="1282" y="615.5" width="130" height="60" as="geometry" />
        </mxCell>
        <mxCell id="Fah7WltUJ408GvqtGRhu-203" value="" style="edgeStyle=elbowEdgeStyle;elbow=horizontal;strokeWidth=2;rounded=0;entryX=0;entryY=0.5;entryDx=0;entryDy=0;exitX=1;exitY=0.5;exitDx=0;exitDy=0;" edge="1" target="Fah7WltUJ408GvqtGRhu-202" parent="1" source="16">
          <mxGeometry x="-23" y="135.5" width="100" height="100" as="geometry">
            <mxPoint x="1260" y="645.5" as="sourcePoint" />
            <mxPoint x="1308" y="1009.5" as="targetPoint" />
            <Array as="points">
              <mxPoint x="1250" y="560" />
            </Array>
          </mxGeometry>
        </mxCell>
        <mxCell id="Fah7WltUJ408GvqtGRhu-204" value="" style="edgeStyle=elbowEdgeStyle;elbow=horizontal;strokeWidth=2;rounded=0;entryX=0;entryY=0.496;entryDx=0;entryDy=0;entryPerimeter=0;exitX=1;exitY=0.5;exitDx=0;exitDy=0;" edge="1" target="Fah7WltUJ408GvqtGRhu-201" parent="1" source="16">
          <mxGeometry x="-23" y="135.5" width="100" height="100" as="geometry">
            <mxPoint x="1200" y="770" as="sourcePoint" />
            <mxPoint x="1308" y="867.5" as="targetPoint" />
            <Array as="points">
              <mxPoint x="1250" y="510" />
            </Array>
          </mxGeometry>
        </mxCell>
        <mxCell id="Fah7WltUJ408GvqtGRhu-206" value="output.tf" style="rounded=1;fillColor=#d5e8d4;strokeColor=#82b366;fontStyle=1;fontFamily=Tahoma;fontSize=14" vertex="1" parent="1">
          <mxGeometry x="1282" y="705.5" width="130" height="60" as="geometry" />
        </mxCell>
        <mxCell id="Fah7WltUJ408GvqtGRhu-207" value="" style="edgeStyle=elbowEdgeStyle;elbow=horizontal;strokeWidth=2;rounded=0;entryX=0;entryY=0.5;entryDx=0;entryDy=0;exitX=1;exitY=0.5;exitDx=0;exitDy=0;" edge="1" parent="1" source="16" target="Fah7WltUJ408GvqtGRhu-206">
          <mxGeometry x="-23" y="135.5" width="100" height="100" as="geometry">
            <mxPoint x="1210" y="506" as="sourcePoint" />
            <mxPoint x="1292" y="656" as="targetPoint" />
            <Array as="points">
              <mxPoint x="1250" y="620" />
            </Array>
          </mxGeometry>
        </mxCell>
      </root>
    </mxGraphModel>
  </diagram>
</mxfile>
